<?xml version="1.0" encoding="UTF-8"?>
<svg version="1.1" xmlns="http://www.w3.org/2000/svg" width="165" height="165">
<path d="M0 0 C14.87885117 12.55117813 26.27998435 31.59257008 28.546875 51.1484375 C30.55748344 77.64987243 24.79944057 99.69630523 7.546875 120.1484375 C-4.99054112 134.6189354 -25.26905228 144.92058575 -44.33642578 146.3671875 C-71.08238477 147.70636867 -92.20872854 140.95560543 -112.5 123.375 C-126.79186551 109.90523295 -135.85374646 89.60469775 -136.828125 70.14453125 C-137.58846827 44.05129278 -130.06004899 22.48166437 -112.015625 3.3359375 C-80.58729814 -26.23526096 -33.17935913 -26.27446547 0 0 Z " fill="#A6EF76" transform="translate(136.453125,18.8515625)"/>
<path d="M0 0 C4.67296594 5.50908311 7.38923966 10.33644552 7.2734375 17.5625 C6.43749976 25.01428784 1.60335749 30.41386006 -4 35 C-14.02428352 41.83335661 -24.80681743 46.91780337 -35.78515625 52 C-54.52479834 60.40158081 -54.52479834 60.40158081 -67 76 C-67.59519731 79.9679821 -67.38147173 82.06751355 -65.875 85.75 C-63.07186341 89.1137639 -60.31615963 90.63615883 -55.9609375 91.3203125 C-46.2442564 91.83533093 -38.57003805 87.37636991 -31.36328125 81.234375 C-19.89155908 70.38838313 -11.63989254 55.19563233 -5 41 C-2.03 41 0.94 41 4 41 C4 65.75 4 90.5 4 116 C-7.88 116 -19.76 116 -32 116 C-31.14409216 110.86455295 -29.94974654 107.3079163 -27.625 102.8125 C-27.27630859 102.12542969 -26.92761719 101.43835938 -26.56835938 100.73046875 C-23.30264486 94.39214285 -19.71075374 88.25325604 -16.09301758 82.11132812 C-11.687562 74.58601672 -7.78079862 66.85409455 -4 59 C-5.485 58.01 -5.485 58.01 -7 57 C-7.38671875 58.2684375 -7.38671875 58.2684375 -7.78125 59.5625 C-13.42201207 75.47234173 -24.28106746 90.05169333 -36 102 C-36.68320313 102.70769531 -37.36640625 103.41539062 -38.0703125 104.14453125 C-48.52704913 114.23470332 -61.97070923 119.55808774 -76.4296875 119.3125 C-84.929581 118.56852683 -93.00884712 115.18134821 -99 109 C-105.40048491 99.82224732 -106.35736135 89.94138239 -105 79 C-101.09054371 66.05984393 -91.476545 58.36694035 -80.025177 52.05822754 C-65.87741459 44.66551481 -50.52872517 40.127039 -35.30322266 35.56738281 C-17.49508434 31.16574391 -17.49508434 31.16574391 -4 20 C-3.61511905 16.85680557 -3.37848762 14.91591297 -5.1875 12.25 C-14.42584944 5.87872453 -29.54022413 8.33718756 -40.0625 10.0625 C-59.64802856 14.30996403 -77.12346256 23.4521641 -94 34 C-94 22.12 -94 10.24 -94 -2 C-66.30190513 -10.13356754 -24.95829142 -19.83641596 0 0 Z " fill="#21201A" transform="translate(129,26)"/>
<path d="M0 0 C1.32 0.33 2.64 0.66 4 1 C0.64292952 10.97100038 -4.80599887 19.90756245 -10 29 C-10.81002966 30.42440307 -11.6199314 31.8488789 -12.4296875 33.2734375 C-14.27838482 36.52028232 -16.13620783 39.76179125 -18 43 C-18.66 42.34 -19.32 41.68 -20 41 C-20 39.68 -20 38.36 -20 37 C-21.65 38.98 -23.3 40.96 -25 43 C-25.66 42.67 -26.32 42.34 -27 42 C-26.61070313 41.59652344 -26.22140625 41.19304687 -25.8203125 40.77734375 C-14.77290249 28.78810385 -7.28498753 14.45051063 0 0 Z " fill="#A4DC7B" transform="translate(122,83)"/>
<path d="M0 0 C2.31 0.66 4.62 1.32 7 2 C7.47544923 5.99377357 7.19917226 7.68879335 5 11.125 C1.94847391 14.42864648 -1.751727 16.56420197 -6 18 C-7.32 18 -8.64 18 -10 18 C-9.505 16.515 -9.505 16.515 -9 15 C-6.36 14.67 -3.72 14.34 -1 14 C-0.67 13.01 -0.34 12.02 0 11 C0.66 11.33 1.32 11.66 2 12 C2.33 10.68 2.66 9.36 3 8 C1.68 7.67 0.36 7.34 -1 7 C-0.649375 6.401875 -0.29875 5.80375 0.0625 5.1875 C1.33304698 2.89186786 1.33304698 2.89186786 0 0 Z " fill="#A9E87D" transform="translate(119,38)"/>
<path d="M0 0 C3.84791822 3.44985772 6.57910249 6.88308329 7.2890625 12.140625 C7.48973795 17.5041324 6.42999494 21.24125992 4 26 C3.67 26 3.34 26 3 26 C2.875 20.25 2.875 20.25 4 18 C3.34 18 2.68 18 2 18 C2.09539062 17.30132812 2.19078125 16.60265625 2.2890625 15.8828125 C2.39992187 14.97273438 2.51078125 14.06265625 2.625 13.125 C2.79902344 11.76761719 2.79902344 11.76761719 2.9765625 10.3828125 C2.98429688 9.59648438 2.99203125 8.81015625 3 8 C2.34 7.34 1.68 6.68 1 6 C0.60235737 4.01178687 0.26224651 2.01055661 0 0 Z " fill="#1F2715" transform="translate(129,27)"/>
<path d="M0 0 C0.33 0 0.66 0 1 0 C1.70731186 4.66825827 -0.07722471 7.03280231 -2.7109375 10.64453125 C-3.13632813 11.09183594 -3.56171875 11.53914063 -4 12 C-4.66 12 -5.32 12 -6 12 C-5.938125 12.721875 -5.87625 13.44375 -5.8125 14.1875 C-6.03746621 17.56199315 -6.99869763 19.30593911 -9 22 C-9.66 22 -10.32 22 -11 22 C-11.28875 22.7425 -11.5775 23.485 -11.875 24.25 C-12.82302644 26.56739797 -13.84845911 28.77917115 -15 31 C-15.66 31 -16.32 31 -17 31 C-15.67675322 26.58039692 -13.93554994 22.89385914 -11.55859375 18.9453125 C-10.89279297 17.83671875 -10.22699219 16.728125 -9.54101562 15.5859375 C-9.19594971 15.01842773 -8.85088379 14.45091797 -8.49536133 13.86621094 C-7.43025737 12.11307883 -6.3756814 10.35392489 -5.32226562 8.59375 C-1.50207294 2.26505057 -1.50207294 2.26505057 0 0 Z " fill="#202E13" transform="translate(117,102)"/>
<path d="M0 0 C0.99 0.33 1.98 0.66 3 1 C2.37351562 1.43570313 1.74703125 1.87140625 1.1015625 2.3203125 C-5.27427862 6.85062788 -5.27427862 6.85062788 -8 14 C-9.32 14 -10.64 14 -12 14 C-12.99 19.28 -13.98 24.56 -15 30 C-17.1649942 25.6700116 -17.44019892 23.45614488 -16 19 C-12.26419011 11.20243708 -7.2083059 4.80553727 0 0 Z " fill="#203010" transform="translate(41,83)"/>
<path d="M0 0 C1.12805557 0.01077827 1.12805557 0.01077827 2.27890015 0.02177429 C3.05615448 0.02223251 3.83340881 0.02269073 4.63421631 0.02316284 C6.28353394 0.02618781 7.93284865 0.03408139 9.5821228 0.0464325 C12.08401851 0.06452023 14.58554006 0.06694325 17.0874939 0.06669617 C18.69296579 0.07161834 20.29843521 0.07744969 21.90390015 0.08427429 C23.01373764 0.08594353 23.01373764 0.08594353 24.14599609 0.08764648 C37.14792576 0.20387438 37.14792576 0.20387438 40.48983765 2.81474304 C40.98483765 3.52630554 40.98483765 3.52630554 41.48983765 4.25224304 C33.95232692 3.34254347 33.95232692 3.34254347 30.85897827 2.73857117 C26.97013208 2.17722467 23.16572482 2.12705902 19.24765015 2.15458679 C18.09509232 2.15670921 18.09509232 2.15670921 16.91925049 2.15887451 C14.48440526 2.16443621 12.04965471 2.17698144 9.61483765 2.18974304 C7.95598482 2.194763 6.29713053 2.19932504 4.63827515 2.20341492 C0.58875995 2.21439306 -3.4606852 2.23163098 -7.51016235 2.25224304 C-4.98918179 -0.26873752 -3.43874068 0.01522758 0 0 Z " fill="#AAE587" transform="translate(73.51016235351563,14.747756958007813)"/>
<path d="M0 0 C0.99 0.33 1.98 0.66 3 1 C2.67 1.99 2.34 2.98 2 4 C2.99 4 3.98 4 5 4 C4.319375 5.85625 4.319375 5.85625 3.625 7.75 C1.7274158 13.38879287 0.84492995 19.12525178 0 25 C-0.33 25 -0.66 25 -1 25 C-1.09390703 20.4924626 -1.08898912 16.14783203 -0.375 11.6875 C0.01100204 7.89181324 -0.31089727 7.15299176 -2 4 C-1.125 1.75 -1.125 1.75 0 0 Z " fill="#A9E87E" transform="translate(23,92)"/>
<path d="M0 0 C0.99 0 1.98 0 3 0 C2.67 0.99 2.34 1.98 2 3 C1.84854901 5.2825699 1.75113021 7.56887706 1.68359375 9.85546875 C1.66281265 10.51710526 1.64203156 11.17874176 1.62062073 11.86042786 C1.55535273 13.96934852 1.49634656 16.07839135 1.4375 18.1875 C1.39429311 19.61915315 1.35067812 21.05079404 1.30664062 22.48242188 C1.19969494 25.98815154 1.09836359 29.49401786 1 33 C1.66 33.33 2.32 33.66 3 34 C2.01 34.66 1.02 35.32 0 36 C0 24.12 0 12.24 0 0 Z " fill="#182608" transform="translate(35,24)"/>
<path d="M0 0 C0.33 0 0.66 0 1 0 C1.02578125 0.82242188 1.0515625 1.64484375 1.078125 2.4921875 C1.50786296 10.95021189 3.23510952 17.47021903 7 25 C6.01 24.67 5.02 24.34 4 24 C4 23.34 4 22.68 4 22 C3.01 21.67 2.02 21.34 1 21 C-0.33979115 13.73633891 -1.43069422 7.29654052 0 0 Z " fill="#98C873" transform="translate(23,109)"/>
<path d="M0 0 C3.89978105 3.49635543 6.76870915 6.9932189 7.18359375 12.38671875 C7.18706798 14.59980151 7.13252756 16.79120725 7 19 C4.41366172 16.41366172 4.69434453 14.39772553 4.34765625 10.88671875 C3.89825023 8.44780742 2.7940691 7.64456334 1 6 C0.3125 2.8125 0.3125 2.8125 0 0 Z " fill="#2B3F18" transform="translate(129,27)"/>
<path d="M0 0 C6.93 0.495 6.93 0.495 14 1 C13.67 1.66 13.34 2.32 13 3 C8.33465044 4.10850248 3.62877994 4.34383934 -1 3 C-0.67 2.01 -0.34 1.02 0 0 Z " fill="#222E14" transform="translate(67,117)"/>
<path d="M0 0 C1.65 0 3.3 0 5 0 C1.68479875 2.79822679 -1.69781061 4.18818992 -5.75 5.6875 C-6.92046875 6.12449219 -8.0909375 6.56148438 -9.296875 7.01171875 C-10.63492188 7.50091797 -10.63492188 7.50091797 -12 8 C-11 5 -11 5 -8 3 C-5.95703125 2.5859375 -5.95703125 2.5859375 -3.8125 2.375 C-2.554375 2.25125 -1.29625 2.1275 0 2 C0 1.34 0 0.68 0 0 Z " fill="#AAE082" transform="translate(64,69)"/>
<path d="M0 0 C2.97 0.495 2.97 0.495 6 1 C3.20375042 3.18697502 0.36692128 4.99152813 -2.75 6.6875 C-3.94882813 7.34298828 -3.94882813 7.34298828 -5.171875 8.01171875 C-5.77515625 8.33785156 -6.3784375 8.66398437 -7 9 C-7 8.01 -7 7.02 -7 6 C-7.66 5.67 -8.32 5.34 -9 5 C-6.69 5 -4.38 5 -2 5 C-1.34 3.35 -0.68 1.7 0 0 Z " fill="#1F2C12" transform="translate(79,80)"/>
<path d="M0 0 C0.33 0.99 0.66 1.98 1 3 C-0.65 3.66 -2.3 4.32 -4 5 C-3.67 5.99 -3.34 6.98 -3 8 C-3.66 8 -4.32 8 -5 8 C-5 7.34 -5 6.68 -5 6 C-5.99 5.67 -6.98 5.34 -8 5 C-5.44008376 2.98863724 -2.95409701 1.37154504 0 0 Z " fill="#A7E07A" transform="translate(87,80)"/>
<path d="M0 0 C-0.7115625 0.680625 -0.7115625 0.680625 -1.4375 1.375 C-3.09027808 2.93258204 -3.09027808 2.93258204 -4 5 C-4.99 5 -5.98 5 -7 5 C-7 4.34 -7 3.68 -7 3 C-7.99 3 -8.98 3 -10 3 C-10 2.34 -10 1.68 -10 1 C-6.59437148 0.22157062 -3.49234244 -0.09978121 0 0 Z " fill="#1F2914" transform="translate(55,20)"/>
<path d="M0 0 C1.98 0.495 1.98 0.495 4 1 C2.515 4.96 2.515 4.96 1 9 C0.67 9 0.34 9 0 9 C-1.125 2.25 -1.125 2.25 0 0 Z " fill="#A0CE7B" transform="translate(122,83)"/>
<path d="M0 0 C2.475 0.99 2.475 0.99 5 2 C3.66666667 4.66666667 2.33333333 7.33333333 1 10 C-0.1577506 6.52674819 -0.06866652 3.63932552 0 0 Z " fill="#98D26E" transform="translate(61,102)"/>
<path d="M0 0 C1.60517097 0.08733576 3.20921662 0.19552224 4.8125 0.3125 C6.15248047 0.39951172 6.15248047 0.39951172 7.51953125 0.48828125 C10.30604 1.06313581 11.24135754 1.8206856 13 4 C8.30976546 3.43393721 3.65499974 2.81462495 -1 2 C-0.67 1.34 -0.34 0.68 0 0 Z " fill="#A4D980" transform="translate(102,15)"/>
<path d="M0 0 C0.66 0 1.32 0 2 0 C0.68938409 4.23429756 -0.94356259 8.07407404 -3 12 C-3.33 12 -3.66 12 -4 12 C-4 10.35 -4 8.7 -4 7 C-3.34 7 -2.68 7 -2 7 C-1.34 4.69 -0.68 2.38 0 0 Z " fill="#A7DC7B" transform="translate(121,69)"/>
<path d="M0 0 C0.33 0.66 0.66 1.32 1 2 C0.34 2 -0.32 2 -1 2 C-1.33 2.99 -1.66 3.98 -2 5 C-3.98 5.33 -5.96 5.66 -8 6 C-8.33 5.34 -8.66 4.68 -9 4 C-6.03 2.68 -3.06 1.36 0 0 Z " fill="#A6DC7D" transform="translate(79,138)"/>
<path d="M0 0 C-3.13269705 3.13269705 -5.97328423 3.05494397 -10.25 3.0625 C-12.10625 3.0315625 -12.10625 3.0315625 -14 3 C-14 2.67 -14 2.34 -14 2 C-9.126739 0.4087311 -5.19209404 -0.21192221 0 0 Z " fill="#ABE284" transform="translate(86,115)"/>
<path d="M0 0 C1.98 0 3.96 0 6 0 C4.35830472 2.02054804 2.69088222 4.02043058 1 6 C0.67 6 0.34 6 0 6 C0 4.02 0 2.04 0 0 Z " fill="#9AD078" transform="translate(96,103)"/>
<path d="M0 0 C-5.75 4 -5.75 4 -8 4 C-8 3.01 -8 2.02 -8 1 C-4.93251126 -0.86240388 -3.40254489 -1.2151946 0 0 Z " fill="#223212" transform="translate(85,135)"/>
<path d="M0 0 C-0.33 0.99 -0.66 1.98 -1 3 C-4.3 3.33 -7.6 3.66 -11 4 C-11 3.34 -11 2.68 -11 2 C-7.17679443 0.57741188 -4.08718695 -0.24042276 0 0 Z " fill="#9CD875" transform="translate(68,15)"/>
<path d="M0 0 C0.66 0 1.32 0 2 0 C4.04169485 2.90548882 5 4.40142046 5 8 C2 7 2 7 0.8125 5.125 C0 3 0 3 0 0 Z " fill="#233213" transform="translate(60,109)"/>
<path d="M0 0 C0 0.99 0 1.98 0 3 C-1.96466413 4.06775224 -3.96855359 5.06553465 -6 6 C-6.66 5.67 -7.32 5.34 -8 5 C-4.04 2.525 -4.04 2.525 0 0 Z " fill="#203313" transform="translate(53,76)"/>
<path d="M0 0 C0.66 0.33 1.32 0.66 2 1 C1.25 5.75 1.25 5.75 -1 8 C-1.625 5.6875 -1.625 5.6875 -2 3 C-1.34 2.01 -0.68 1.02 0 0 Z " fill="#A2E073" transform="translate(104,118)"/>
<path d="M0 0 C0 0.99 0 1.98 0 3 C-2.97 3 -5.94 3 -9 3 C-5.73209435 0.82139623 -3.91954654 0 0 0 Z " fill="#9DCD77" transform="translate(84,37)"/>
<path d="M0 0 C3.63 0.33 7.26 0.66 11 1 C11 1.33 11 1.66 11 2 C9.72125 2.144375 8.4425 2.28875 7.125 2.4375 C4.74307106 2.70642746 3.15547309 2.92226346 1 4 C0.67 2.68 0.34 1.36 0 0 Z " fill="#A9E982" transform="translate(122,64)"/>
</svg>
